<?xml version="1.0" standalone="no"?>
<!DOCTYPE svg PUBLIC "-//W3C//DTD SVG 20010904//EN"
 "http://www.w3.org/TR/2001/REC-SVG-20010904/DTD/svg10.dtd">
<svg version="1.0" xmlns="http://www.w3.org/2000/svg"
 width="276.000000pt" height="276.000000pt" viewBox="0 0 276.000000 276.000000"
 preserveAspectRatio="xMidYMid meet">
<metadata>
Created by potrace 1.14, written by Peter Selinger 2001-2017
</metadata>
<g transform="translate(0.000000,276.000000) scale(0.100000,-0.100000)"
fill="#000000" stroke="none">
<path d="M340 2728 c-103 -39 -186 -110 -240 -204 -60 -104 -59 -73 -59 -1136
0 -535 4 -994 9 -1019 30 -153 144 -278 311 -339 41 -15 133 -17 1003 -17
1033 -1 1003 -2 1112 53 50 25 164 127 164 147 0 5 9 21 20 37 50 70 50 72 50
1136 0 970 0 993 -20 1058 -41 130 -157 246 -288 286 -63 20 -94 20 -1036 19
-959 0 -972 -1 -1026 -21z"/>
</g>
</svg>
